<svg viewBox="-0.629 0.612 1441.126 700" width="1441.126" height="700" preserveAspectRatio="none" xmlns="http://www.w3.org/2000/svg">
  <defs>
    <linearGradient id="gradient-2" gradientUnits="userSpaceOnUse" x1="1342.086" y1="528.662" x2="1342.086" y2="567.025" gradientTransform="matrix(1.000179, 0, 0, 1, -0.15995, 0)">
      <stop offset="0" style="stop-color: rgba(57, 61, 123, 1)"/>
      <stop offset="1" style="stop-color: rgba(25, 27, 53, 1)"/>
    </linearGradient>
    <linearGradient id="gradient-1" gradientUnits="userSpaceOnUse" x1="1175.839" y1="532.665" x2="1175.839" y2="559.849" gradientTransform="matrix(1.000179, 0, 0, 1, -0.15995, 0)">
      <stop offset="0" style="stop-color: rgba(57, 61, 123, 1)"/>
      <stop offset="1" style="stop-color: rgba(25, 27, 53, 1)"/>
    </linearGradient>
    <linearGradient id="gradient-0" gradientUnits="userSpaceOnUse" x1="110.425" y1="509.401" x2="110.425" y2="537.74" gradientTransform="matrix(1.000179, 0, 0, 1, -0.15995, 0)">
      <stop offset="0" style="stop-color: rgba(57, 61, 123, 1)"/>
      <stop offset="1" style="stop-color: rgba(25, 27, 53, 1)"/>
    </linearGradient>
    <linearGradient id="gradient-3" gradientUnits="userSpaceOnUse" x1="300.491" y1="545.829" x2="300.491" y2="571.823" gradientTransform="matrix(1.000179, 0, 0, 1, -0.15995, 0)">
      <stop offset="0" style="stop-color: rgba(57, 61, 123, 1)"/>
      <stop offset="1" style="stop-color: rgba(25, 27, 53, 1)"/>
    </linearGradient>
  </defs>
  <rect width="1440.257" height="700" style="fill: rgb(88, 213, 244);" y="0.612" x="-0.16"/>
  <path style="stroke: rgb(0, 0, 0); stroke-width: 0px; fill: rgb(65, 193, 229);" d="M 261.567 475.703 C 281.761 450.561 341.054 388.397 432.121 368.735 C 648.936 321.924 926.706 313.814 1160.547 398.787 C 1209.342 416.518 1241.447 483.579 1297.526 485.87 C 1379.778 489.232 1361.157 522.061 1305.884 644.074 C 1298.335 660.735 1277.985 667.408 1244.832 664.09 C 1059.757 645.571 873.285 647.054 685.415 668.539 C 591.482 679.282 496.698 676.044 401.066 658.828 C 343.23 648.415 307.035 654.132 251.633 636.185 C 212.692 623.571 199.945 583.322 261.567 475.703 Z"/>
  <path style="stroke: rgb(0, 0, 0); fill: rgb(65, 193, 229); stroke-width: 0px;" d="M 139.531 205.331 C 163.719 181.313 209.475 163.069 276.802 150.6 C 332.583 140.269 388.888 147.962 445.719 173.677 C 624.367 254.512 819.911 269.564 1032.354 218.834 C 1143.955 192.185 1257.816 178.017 1373.938 176.332 C 1410.394 175.803 1426.89 208.218 1423.426 273.578 C 1418.356 369.253 1324.261 387.407 1141.142 328.039 C 1061.584 302.246 974.713 291.193 880.53 294.88 C 764.129 299.437 643.223 288.654 517.812 262.532 C 485.079 255.714 445.425 242.518 398.85 222.943 C 352.473 203.452 300.802 202.798 243.837 220.982 C 212.974 230.834 184.069 245.406 157.121 264.699 C 115.275 294.657 109.412 274.868 139.531 205.331 Z"/>
  <path d="M -0.16 641.71 L -0.16 184.608 C 17.587 185.263 33.181 202.149 58.97 205.774 C 74.184 207.913 128.594 181.732 137.385 188.061 C 153.07 199.353 151.348 228.813 165.416 239.779 C 179.557 250.803 197.721 245.479 212.861 252.499 C 226.916 259.016 214.601 296.833 221.283 316.076 C 227.432 333.785 257.925 323.464 264.054 336.479 C 290.807 393.282 218.332 409.035 253.737 461.697 C 279.328 499.762 310.113 502.974 343.763 509.326 C 354.468 511.347 363.354 512.55 374.04 510.574 C 377.521 509.931 384.9 510.896 388.324 509.939 C 388.745 515.131 390.154 523.883 390.004 528.179 C 389.589 539.954 387.079 564.022 395.633 570.6 C 418.909 588.501 446.72 605.337 445.269 641.71 Z M 388.324 509.939 C 388.041 506.478 388.197 504.599 389.548 506.678 C 390.744 508.521 390.019 509.466 388.324 509.939 Z" style="fill: rgb(65, 121, 163);"/>
  <path d="M 1440.212 588.283 L 1079.478 588.283 C 1080.059 584.871 1081.041 581.474 1080.448 578.563 C 1076.722 560.295 1081.465 533.75 1093.868 518.777 C 1101.938 509.034 1117.256 507.163 1126.234 498.302 C 1140.023 484.695 1118.816 451.235 1135.435 437.431 C 1143.013 431.136 1171.791 438.853 1178.906 441.368 C 1182.645 442.69 1192.181 446.044 1195.561 441.382 C 1202.444 431.889 1193.916 420.38 1198.871 411.576 C 1209.955 391.884 1229.984 393.891 1243.956 378.513 C 1255.973 365.286 1244.194 340.337 1247.077 325.474 C 1248.274 319.297 1255.778 309.429 1255.499 304.3 C 1255.417 302.79 1262.614 300.605 1263.567 300.26 C 1271.803 297.277 1282.408 292.849 1288.734 286.663 C 1293.451 282.048 1289.346 271.128 1293.099 265.466 C 1296.504 260.333 1306.006 263.353 1308.297 261.063 C 1309.417 259.943 1305.526 259.189 1304.911 257.729 C 1303.711 254.877 1301.153 246.011 1304.657 243.619 C 1307.378 241.761 1314.84 235.449 1318.681 237.221 C 1326.084 240.637 1337.075 251.637 1345.229 241.818 C 1354.062 231.181 1329.672 224.889 1337.486 211.111 C 1337.856 210.459 1343.472 216.844 1344.994 217.721 C 1348.821 219.929 1352.822 216.236 1355.264 214.148 C 1363.929 206.737 1346.613 189.154 1352.765 180.495 C 1355.039 177.293 1365.099 181.143 1368.599 177.732 C 1371.602 174.806 1365.741 163.468 1370.028 158.397 C 1372.811 155.107 1385.508 156.104 1389.79 156.997 C 1391.799 157.416 1395.22 162.139 1395.114 160.09 C 1394.95 156.912 1410.608 156.89 1411.717 157.487 C 1414.209 158.829 1417.861 162.983 1421.516 162.254 C 1431.544 160.254 1430.925 151.152 1440.212 149.585 Z" style="fill: rgb(65, 121, 163);"/>
  <path d="M 1340.026 530.661 C 1337.179 532.17 1333.179 537.498 1330.168 537.661 C 1325.394 537.92 1318.329 534 1313.884 536.649 C 1310.776 538.5 1313.561 542.912 1311.654 544.743 C 1309.849 546.474 1305.525 545.713 1304.454 548.5 C 1301.63 555.852 1310.901 561.087 1316.18 563.173 C 1327.146 567.505 1351.87 568.33 1363.138 564.897 C 1377.005 560.673 1364.31 554.515 1366.115 552.709 C 1367.637 551.187 1383.328 536.204 1379.917 535.048 C 1376.159 533.775 1373.43 530.587 1369.951 529.13 C 1366.213 527.566 1361.037 530.381 1357.425 530.916 C 1351.689 531.765 1343.082 529.038 1337.467 529.038" style="stroke: rgb(57, 61, 123); stroke-width: 0px; fill: url(#gradient-2);"/>
  <path d="M 1150.836 559.849 C 1140.741 558.181 1135.77 548.954 1146.661 543.51 C 1148.051 542.815 1152.504 544.17 1154.536 543.467 C 1159.535 541.738 1164.105 534.207 1168.059 533.077 C 1173.495 531.524 1189.018 534.756 1195.114 536.254 C 1197.647 536.877 1211.259 536.902 1211.259 540.398 C 1211.259 559.49 1178.761 556.389 1165.4 556.957 C 1161.087 557.141 1151.338 559.272 1149.282 557.711" style="stroke: rgb(57, 61, 123); stroke-width: 0px; fill: url(#gradient-1);"/>
  <path d="M 58.575 525.769 C 62.894 515.101 70.686 520.443 78.062 518.785 C 88.038 516.543 96.602 510.141 107.082 509.404 C 109.087 509.263 109.097 513.419 111.857 513.25 C 116.826 512.945 121.994 508.491 127.181 509.943 C 131.315 511.1 134.006 517.633 137.546 519.359 C 142.873 521.955 152.974 518.91 159.013 518.809 C 161.869 518.761 161.007 525.312 161.231 526.866 C 161.41 528.109 162.585 530.515 162.181 531.749 C 160.021 538.342 138.994 535.061 134.597 535.378 C 118.411 536.545 97.247 539.562 81.138 536.196 C 74.815 534.875 68.967 531.977 62.765 530.388 C 61.514 530.067 59.704 525.958 58.303 526.295" style="stroke: rgb(0, 0, 0); stroke-width: 0px; fill: url(#gradient-0);"/>
  <path d="M 283.075 546.691 C 282.48 547.718 279.734 554.268 277.829 554.518 C 276.074 554.749 267.385 553.034 267.073 554.746 C 265.064 565.78 270.982 561.511 276.337 564.143 C 279.094 565.499 281.449 570.801 283.863 571.48 C 292.258 573.84 303.878 563.343 311.722 560.935 C 317.423 559.185 322.393 566.239 327.616 565.89 C 345.934 564.666 319.944 552.912 316.625 552.191 C 312.225 551.235 307.505 551.437 303.044 550.838 C 297.729 550.125 289.778 545.829 282.24 545.829" style="stroke: rgb(57, 61, 123); stroke-width: 0px; fill: url(#gradient-3);"/>
  <path d="M 1440.497 700.604 L -0.629 700.604 L -0.629 524.25 C 60.319 518.813 134.114 524.681 220.76 541.852 C 305.006 558.549 398.522 579.805 501.308 605.622 C 559.838 620.324 621.895 617.156 687.474 596.118 C 767.513 570.44 851.961 560.543 940.812 566.428 C 1010.991 571.076 1081.328 566.623 1151.819 553.07 C 1193.122 545.128 1236.283 542.528 1281.295 545.267 C 1334.935 548.53 1388.002 543.614 1440.497 530.516 L 1440.497 700.604 Z" style="fill: rgb(229, 166, 45);"/>
  <path style="stroke: rgb(0, 0, 0); stroke-width: 0px; fill: rgb(234, 184, 106);" d="M 101.187 560.305 C 92.36 570.311 65.084 614.579 85.083 625.465 C 117.372 643.042 153.915 644.354 190.664 648.512 C 210.648 650.774 230.451 656.916 251.127 654.732 C 280.367 651.645 313.963 642.712 343.773 648.189 C 394.321 657.475 438.609 681.93 491.098 685.479 C 520.917 687.496 562.76 688.212 585.702 666.793 C 591.197 661.662 617.133 652.907 623.328 646.03 C 628.571 640.21 645.483 618.836 638.078 620.257 C 632.548 621.318 590.448 648.472 573.734 649.036 C 564.385 649.352 554.301 649.945 545.331 651.515 C 519.553 656.03 488.586 661.603 462.424 657.309 C 434.274 652.688 413.086 631.186 383.738 627.931 C 340.575 623.145 302.696 630.173 260.571 633.51 C 227.127 636.161 193.898 628.65 161.383 622.613 C 136.684 618.028 102.035 601.137 102.035 571.753 C 102.035 565.228 97.357 557.266 103.56 552.921"/>
  <path d="M 920.373 608.912 C 919.06 610.42 910.3 615.172 908.346 615.678 C 900.161 617.797 887.117 622.11 879.571 619.944 C 873.757 618.275 884.479 605.966 881.595 600.866 C 880.918 599.669 858.543 588.446 870.717 583.069 C 881.276 578.406 912.858 586.652 924.208 587.498 C 947.342 589.219 968.797 581.669 992.279 586.991 C 1038.254 597.411 1070.458 633.357 1116.634 644.879 C 1170.175 658.236 1233.405 639.662 1283.283 667.349 C 1297.806 675.409 1301.252 687.792 1299.118 700.547 L 1230.807 700.547 C 1224.184 691.102 1215.754 681.13 1204.276 674.992 C 1165.426 654.212 1111.412 665.299 1077.695 645.753 C 1057.484 634.036 1014.989 640.972 990.552 637.772 C 978.267 636.162 972.412 625.103 961.278 620.528 C 949.174 615.553 935.833 613.731 920.822 610.198 Z" style="fill: rgb(208, 151, 40);"/>
  <path stroke="rgb(255,0,0)" d="M 725.496 627.224 C 730.525 629.734 737.232 630.571 745.617 629.734 C 746.455 627.224 749.389 626.387 754.42 627.224 C 756.097 628.061 757.774 629.734 759.45 632.243 C 761.126 638.937 759.87 642.701 755.679 643.538 C 749.809 647.721 741.423 648.558 730.525 646.048 C 725.496 645.211 721.723 643.538 719.206 641.029 C 719.206 637.682 718.788 635.59 717.948 634.753 C 718.788 632.243 720.465 630.153 722.981 628.479 C 723.819 628.479 724.657 628.061 725.496 627.224 Z" style="stroke: rgb(129, 151, 57); stroke-width: 0px; fill: rgb(208, 151, 40);"/>
  <path stroke="rgb(255,0,0)" d="M 1255.617 568.921 C 1281.909 572.834 1316.972 574.138 1360.797 572.834 C 1365.179 568.921 1380.516 567.616 1406.811 568.921 C 1415.576 570.225 1424.342 572.834 1433.108 576.744 C 1441.869 587.178 1435.3 593.045 1413.385 594.349 C 1382.706 600.87 1338.88 602.174 1281.909 598.261 C 1255.617 596.958 1235.894 594.349 1222.745 590.438 C 1222.745 585.221 1220.554 581.961 1216.17 580.657 C 1220.554 576.744 1229.319 573.485 1242.468 570.877 C 1246.851 570.877 1251.233 570.225 1255.617 568.921 Z" style="stroke: rgb(129, 151, 57); stroke-width: 0px; fill: rgb(234, 184, 106);"/>
  <path stroke="rgb(255,0,0)" d="M 39.32 545.32 C 51.894 546.157 62.375 549.084 70.758 554.105 C 72.435 551.594 75.789 550.758 80.819 551.594 C 82.495 552.431 84.172 554.105 85.85 556.615 C 86.688 561.634 86.27 564.981 84.591 566.654 C 80.399 570.837 73.273 572.51 63.213 571.673 C 55.667 564.144 45.607 559.96 33.03 559.124 C 33.03 555.778 32.612 553.686 31.774 552.849 C 32.612 550.339 34.289 548.248 36.804 546.575 C 37.642 546.575 38.48 546.157 39.32 545.32 Z" style="stroke: rgb(129, 151, 57); fill: rgb(208, 151, 40); stroke-width: 0px;"/>
  <ellipse style="fill: rgb(208, 151, 40);" cx="49.919" cy="650.097" rx="11.2" ry="5.005"/>
  <ellipse style="fill: rgb(208, 151, 40);" cx="362.861" cy="600.223" rx="11.2" ry="5.005"/>
  <ellipse style="fill: rgb(208, 151, 40);" cx="839.855" cy="627.062" rx="11.2" ry="5.005"/>
  <ellipse style="fill: rgb(208, 151, 40);" cx="917.972" cy="663.957" rx="12.641" ry="6.851"/>
  <ellipse style="fill: rgb(208, 151, 40);" cx="1017.934" cy="668.315" rx="11.434" ry="7.459"/>
  <ellipse style="fill: rgb(208, 151, 40);" cx="390.341" cy="659.288" rx="11.2" ry="5.005"/>
  <ellipse style="fill: rgb(234, 184, 106);" cx="1121.077" cy="611.4" rx="14.212" ry="6.658"/>
  <ellipse style="fill: rgb(234, 184, 106);" cx="1224.616" cy="630.611" rx="15.691" ry="7.246"/>
  <ellipse style="fill: rgb(234, 184, 106);" cx="1411.112" cy="641.048" rx="15.411" ry="7.805"/>
  <ellipse style="fill: rgb(234, 184, 106);" cx="206.857" cy="568.97" rx="17.134" ry="8.681"/>
  <ellipse style="fill: rgb(65, 193, 229);" cx="819.967" cy="113.15" rx="84.447" ry="24.826" transform="matrix(0.971577, -0.236724, 0, 1.029255, -0.15995, 194.106369)"/>
  <path d="M 1177.035 132.654 C 1138.048 143.061 1086.749 152.48 1043.028 143.625 C 1023.171 139.603 1012.892 128.288 1011.789 111.607 C 1010.45 91.367 1018.856 76.931 1036.229 66.001 C 1081.129 37.751 1131.808 26.378 1181.465 20.205 C 1234.46 13.616 1280.959 13.312 1320.33 15.744 C 1371.77 18.921 1411.582 22.535 1439.765 26.587 L 1439.765 70.613 C 1354.468 85.322 1266.294 108.828 1177.035 132.654 Z" style="fill: rgb(65, 193, 229);"/>
  <path d="M 70.876 35.958 C 216.63 31.765 365.04 29.871 513.884 46.513 C 536.63 49.056 554.477 54.007 572.694 63.797 C 583.096 69.388 584.528 78.906 565.505 86.156 C 525.651 101.346 469.617 110.328 397.231 109.837 C 321.77 109.325 234.153 95.249 134.238 79.974 C 83.219 72.175 42.42 69.707 0.097 68.906 L 0.097 38.71 C 14.028 37.833 37.621 36.915 70.876 35.958 Z" style="fill: rgb(65, 193, 229);"/>
</svg>
