<svg viewBox="-1.269 0.44 1441.32 700.078" width="1441.32" height="700.078" preserveAspectRatio="none" xmlns="http://www.w3.org/2000/svg">
  <defs>
    <linearGradient id="gradient-1" gradientUnits="userSpaceOnUse" x1="720" y1="89.466" x2="720" y2="670.929" gradientTransform="matrix(0.997987, 0, 0, 0.996072, -0.076391, -0.077029)">
      <stop offset="0" style="stop-color: rgba(77, 172, 198, 1)"/>
      <stop offset="1" style="stop-color: rgba(42, 112, 131, 1)"/>
    </linearGradient>
    <linearGradient id="gradient-0" gradientUnits="userSpaceOnUse" x1="720" y1="257.731" x2="720" y2="702.597" gradientTransform="matrix(0.997987, 0, 0, 0.996072, -0.076391, -0.077029)">
      <stop offset="0" style="stop-color: rgba(28, 126, 150, 1)"/>
      <stop offset="1" style="stop-color: rgba(12, 54, 64, 1)"/>
    </linearGradient>
    <linearGradient id="gradient-25" gradientUnits="userSpaceOnUse" x1="1393.259" y1="89.569" x2="1393.259" y2="634.566" gradientTransform="matrix(0.997987, 0, 0, 0.996072, 0.353293, -2.312812)">
      <stop offset="0" style="stop-color: rgba(57, 61, 123, 1)"/>
      <stop offset="1" style="stop-color: rgba(25, 27, 53, 1)"/>
    </linearGradient>
    <linearGradient id="gradient-24" gradientUnits="userSpaceOnUse" x1="34.521" y1="39.456" x2="34.521" y2="556.019" gradientTransform="matrix(0.997987, 0, 0, 0.996072, -1.37147, -1.866061)">
      <stop offset="0" style="stop-color: rgba(57, 61, 123, 1)"/>
      <stop offset="1" style="stop-color: rgba(25, 27, 53, 1)"/>
    </linearGradient>
  </defs>
  <g transform="matrix(1.000921, 0, 0, 1, -0.100508, 0.440196)" >
    <rect width="1438.766" height="700" style="fill: rgb(98, 184, 213);" x="-0.001"/>
    <path style="stroke: rgb(0, 0, 0); stroke-width: 0px; fill: url(#gradient-1);" d="M 142.88 106.303 C 252.246 129.178 370.416 169.688 486.28 196.831 C 699.262 246.728 804.564 255.352 967.959 235.044 C 1131.289 214.744 1277.445 151.558 1437.025 121.962 L 1437.025 668.217 L -0.076 668.217 L -0.076 89.646 C 29.86 87.078 77.513 92.63 142.88 106.303 Z"/>
    <path d="M 1437.025 699.76 L 3.844 699.76 C 2.302 696.819 1.007 693.698 -0.076 690.438 L -0.076 319.007 C 5.788 310.775 13.749 305.743 23.849 309.138 C 26.786 310.126 33.003 306.522 35.205 308.721 L 32.485 308.467 C 39.055 311.388 61.647 315.045 67.548 308.992 C 68.717 307.794 75.299 310.313 77.681 307.988 C 78.871 306.824 76.83 311.484 77.453 313.047 C 78.322 315.231 81.927 315.381 83.902 315.483 C 90.824 315.84 97.938 313.776 104.241 313.776 C 107.492 313.776 116.772 310.614 113.856 312.09 C 108.086 315.01 114.775 325.765 117.107 328.378 C 124.396 336.545 137.522 340.413 148.43 340.131 C 150.78 340.071 147.65 345.012 148.174 347.364 C 149.081 351.442 152.543 355.585 156.961 356.016 C 165.713 356.868 171.453 346.231 178.379 344.961 C 196.51 341.636 204.023 349.207 219.799 349.046 C 226.347 348.979 235.257 340.943 243.268 344.845 C 248.053 347.177 252.803 351.105 259.501 353.596 C 261.645 354.393 271.021 354.095 271.313 354.925 C 272.763 359.032 269.1 367.232 273.687 369.027 C 289.773 375.316 302.045 360.713 315.341 363.306 C 322.502 364.702 315.165 377.92 319.176 378.478 C 325.097 379.303 335.173 376.179 340.255 375.086 C 350.905 372.791 371.264 376.179 383.169 376.996 C 388.81 377.382 393.374 383.734 398.201 384.049 C 412.665 384.992 428.564 390.161 442.941 388.704 C 448.784 388.112 463.564 386.099 469.812 387.884 C 480.174 390.845 491.544 394.082 502.293 393.896 C 503.644 393.872 501.277 400.804 509.497 402.632 C 519.34 404.819 516.769 395.552 521.633 393.887 C 528.781 391.443 538.308 393.261 545.658 391.752 C 558.678 389.08 566.032 379.803 581.65 381.738 C 590.861 382.88 609.418 392.35 611.418 402.514 C 612.682 408.93 593.764 414.452 598.809 417.741 C 602.789 420.337 612.423 419.453 617.279 419.831 C 634.064 421.14 649.848 418.14 670.22 416.742 C 674.104 416.475 681.64 412.333 686.816 413.053 C 689.579 413.437 707.961 415.581 709.484 416.8 C 712.496 419.211 706.012 428.391 712.256 428.391 C 723.967 428.391 744.459 434.202 755.284 430.503 C 758.894 429.269 753.096 417.322 752.269 415.667 C 746.902 404.944 749.033 383.948 762.799 381.93 C 790.665 377.846 778.482 406.848 799.975 409.065 C 821.366 411.27 842.34 412.513 851.952 392.793 C 852.725 391.204 852.78 396.246 853.341 397.926 C 853.955 399.767 857.686 403.746 859.555 404.372 C 864.65 406.076 876.312 404.664 881.516 404.16 C 904.341 401.95 917.307 396.711 928.552 379.411 C 929.607 377.786 934.679 375.979 934.971 375.616 C 934.925 376.718 934.732 379.907 933.941 380.906 C 932.406 382.846 938.66 379.575 941.081 379.315 C 947.318 378.646 954.459 381.155 959.836 377.846 C 972.333 370.153 939.099 365.011 949.239 349.404 C 962.671 328.73 948.852 373.859 968.652 370.264 C 973.296 369.42 977.83 359.083 981.526 356.024 C 992.042 347.321 1001.156 355.6 1004.106 338.067 C 1004.462 335.945 1005.75 330.513 1007.076 329.153 C 1008.542 327.65 1015.351 329.556 1013.277 329.556 C 1011.353 329.556 1012.653 333.598 1011.537 335.21 C 1009.729 337.822 1003.372 340.569 1005.372 345.345 C 1007.597 350.65 1016.754 346.733 1020.268 344.524 C 1024.201 342.051 1027.307 343.26 1031.416 342.184 C 1037.742 340.53 1048.676 329.214 1054.095 330.259 C 1067.018 332.754 1080.817 334.686 1092.746 334.377 C 1094.907 334.321 1098.275 339.052 1100.471 339.587 C 1110.862 342.119 1124.914 350.665 1138.008 349.795 C 1149.682 349.02 1153.896 322.731 1157.388 314.355 C 1159.67 308.875 1175.057 298.581 1181.252 296.276 C 1191.855 292.333 1204.628 294.687 1215.567 292.945 C 1216.449 292.805 1225.175 293.175 1225.376 294.403 C 1225.908 297.65 1218.15 300.729 1220.53 302.938 C 1223.669 305.854 1239.743 309.159 1244.86 307.409 C 1257.275 303.163 1238.06 295.777 1238.06 294.357 C 1238.06 289.802 1246.748 296.504 1251.186 296.681 C 1256.149 296.877 1266.839 292.266 1271.493 295.19 C 1273.225 296.279 1272.657 300.288 1273.961 301.943 C 1277.689 306.674 1296.828 308.966 1300.781 304.911 C 1300.93 304.76 1300.907 304.638 1300.764 304.543 C 1308.64 304.4 1319.212 302.21 1326.592 302.293 C 1327.368 302.302 1336.521 303.652 1337.072 302.522 C 1338.698 299.185 1320.54 288.145 1321.842 285.476 C 1329.487 269.793 1355.179 284.598 1367.756 280.529 C 1374.291 278.416 1375.391 271.219 1380.057 268.346 C 1389.814 262.342 1395.954 258.704 1409.294 258.704 C 1412.131 258.704 1413.979 256.138 1416.414 256.73 C 1420.353 257.69 1419.435 260.459 1421.536 262.576 C 1428.879 269.984 1434.245 266.325 1437.025 273.483 Z M 934.971 375.616 C 934.99 375.172 934.984 375.068 934.984 375.589 C 934.984 375.597 934.979 375.606 934.971 375.616 Z M 1300.764 304.543 C 1299.306 304.569 1297.942 304.525 1296.706 304.383 C 1295.554 304.251 1299.976 304.009 1300.764 304.543 Z" style="opacity: 0.7; fill: url(#gradient-0);"/>
    <path d="M 1438.653 629.761 L 1354.961 629.761 C 1327.298 586.411 1354.721 530.389 1365.099 488.548 C 1371.601 462.327 1353.041 439.463 1357.186 413.832 C 1358.325 406.788 1369.415 409.609 1373.965 405.64 C 1379.666 400.667 1387.893 383.759 1390.493 375.889 C 1402.366 339.96 1389.682 310.917 1391.25 275.286 C 1391.909 260.334 1405.646 250.227 1406.515 235 C 1407.152 223.867 1399.918 216.209 1398.589 205.367 C 1397.27 194.595 1401.922 182.753 1398.097 172.224 C 1389.849 149.526 1365.823 150.257 1374.806 119.29 C 1383.226 90.263 1411.787 88.675 1438.653 86.905 Z" style="fill: url(#gradient-25);"/>
    <path d="M -0.076 551.969 L -0.076 37.435 C 16.699 38.699 8.259 78.7 12.762 111.345 C 15.719 132.787 22.819 154.139 23.512 176.928 C 24.113 196.632 19.877 216.428 22.351 236.254 C 25.813 263.986 34.944 285.033 43.015 301.356 C 46.381 308.167 52.657 315.198 54.887 325.935 C 57.433 338.194 58.592 357.717 58.053 371.909 C 57.625 383.231 53.804 394.437 55.701 407.096 C 57.569 419.546 63.199 426.774 65.381 439.185 C 68.016 454.174 63.692 472.533 64.172 487.935 C 64.872 510.431 66.788 534.125 65.238 551.969 Z" style="fill: url(#gradient-24);"/>
    <path d="M 1438.827 700.078 L -1.167 700.078 L -1.167 524.062 C 59.734 518.636 133.472 524.492 220.048 541.63 C 304.229 558.295 397.671 579.511 500.377 605.278 C 558.861 619.952 620.869 616.79 686.396 595.792 C 766.372 570.164 850.754 560.286 939.535 566.159 C 1009.659 570.798 1079.94 566.354 1150.375 552.827 C 1191.646 544.9 1234.774 542.305 1279.751 545.039 C 1333.348 548.296 1386.373 543.389 1438.827 530.316 L 1438.827 700.078 Z" style="fill: rgb(229, 166, 45);"/>
    <path style="stroke: rgb(0, 0, 0); stroke-width: 0px; fill: rgb(234, 184, 106);" d="M 99.507 559.805 C 90.681 569.811 63.41 614.079 83.406 624.965 C 115.689 642.542 152.225 643.854 188.967 648.012 C 208.948 650.274 228.747 656.416 249.42 654.232 C 278.654 651.145 312.245 642.212 342.049 647.689 C 392.589 656.975 436.869 681.43 489.348 684.979 C 519.161 686.996 560.997 687.712 583.935 666.293 C 589.429 661.162 615.361 652.407 621.555 645.53 C 626.797 639.71 643.706 618.336 636.302 619.757 C 630.773 620.818 588.68 647.972 571.969 648.536 C 562.622 648.852 552.54 649.445 543.571 651.015 C 517.798 655.53 486.836 661.103 460.679 656.809 C 432.535 652.188 411.35 630.686 382.007 627.431 C 338.852 622.645 300.98 629.673 258.862 633.01 C 225.424 635.661 192.201 628.15 159.691 622.113 C 134.998 617.528 100.355 600.637 100.355 571.253 C 100.355 564.728 95.677 556.766 101.879 552.421"/>
    <path d="M 918.546 608.412 C 917.233 609.92 908.475 614.672 906.521 615.178 C 898.337 617.297 885.296 621.61 877.751 619.444 C 871.938 617.775 882.658 605.466 879.775 600.366 C 879.098 599.169 856.727 587.946 868.898 582.569 C 879.456 577.906 911.032 586.152 922.38 586.998 C 945.51 588.719 966.961 581.169 990.439 586.491 C 1036.406 596.911 1068.604 632.857 1114.772 644.379 C 1168.303 657.736 1231.522 639.162 1281.391 666.849 C 1295.912 674.909 1299.357 687.292 1297.224 700.047 L 1228.925 700.047 C 1222.303 690.602 1213.874 680.63 1202.398 674.492 C 1163.555 653.712 1109.55 664.799 1075.839 645.253 C 1055.632 633.536 1013.145 640.472 988.713 637.272 C 976.43 635.662 970.576 624.603 959.444 620.028 C 947.342 615.053 934.003 613.231 918.995 609.698 Z" style="fill: rgb(208, 151, 40);"/>
    <path stroke="rgb(255,0,0)" d="M 723.705 626.724 C 728.733 629.234 735.439 630.071 743.821 629.234 C 744.659 626.724 747.593 625.887 752.623 626.724 C 754.299 627.561 755.976 629.234 757.652 631.743 C 759.328 638.437 758.072 642.201 753.881 643.038 C 748.013 647.221 739.629 648.058 728.733 645.548 C 723.705 644.711 719.932 643.038 717.416 640.529 C 717.416 637.182 716.998 635.09 716.158 634.253 C 716.998 631.743 718.675 629.653 721.19 627.979 C 722.028 627.979 722.866 627.561 723.705 626.724 Z" style="stroke: rgb(129, 151, 57); stroke-width: 0px; fill: rgb(208, 151, 40);"/>
    <path stroke="rgb(255,0,0)" d="M 1253.73 568.421 C 1280.018 572.334 1315.075 573.638 1358.891 572.334 C 1363.272 568.421 1378.606 567.116 1404.897 568.421 C 1413.66 569.725 1422.425 572.334 1431.189 576.244 C 1439.949 586.678 1433.381 592.545 1411.47 593.849 C 1380.796 600.37 1336.979 601.674 1280.018 597.761 C 1253.73 596.458 1234.011 593.849 1220.864 589.938 C 1220.864 584.721 1218.673 581.461 1214.29 580.157 C 1218.673 576.244 1227.437 572.985 1240.584 570.377 C 1244.966 570.377 1249.347 569.725 1253.73 568.421 Z" style="stroke: rgb(129, 151, 57); stroke-width: 0px; fill: rgb(234, 184, 106);"/>
    <path stroke="rgb(255,0,0)" d="M 37.65 544.82 C 50.222 545.657 60.701 548.584 69.083 553.605 C 70.76 551.094 74.113 550.258 79.142 551.094 C 80.818 551.931 82.495 553.605 84.172 556.115 C 85.01 561.134 84.592 564.481 82.914 566.154 C 78.722 570.337 71.598 572.01 61.539 571.173 C 53.995 563.644 43.936 559.46 31.362 558.624 C 31.362 555.278 30.944 553.186 30.106 552.349 C 30.944 549.839 32.62 547.748 35.135 546.075 C 35.973 546.075 36.811 545.657 37.65 544.82 Z" style="stroke: rgb(129, 151, 57); fill: rgb(208, 151, 40); stroke-width: 0px;"/>
    <ellipse style="fill: rgb(208, 151, 40);" cx="48.248" cy="649.597" rx="11.198" ry="5.005"/>
    <ellipse style="fill: rgb(208, 151, 40);" cx="361.134" cy="599.723" rx="11.198" ry="5.005"/>
    <ellipse style="fill: rgb(208, 151, 40);" cx="838.043" cy="626.562" rx="11.198" ry="5.005"/>
    <ellipse style="fill: rgb(208, 151, 40);" cx="916.145" cy="663.457" rx="12.639" ry="6.851"/>
    <ellipse style="fill: rgb(208, 151, 40);" cx="1016.09" cy="667.815" rx="11.432" ry="7.459"/>
    <ellipse style="fill: rgb(208, 151, 40);" cx="388.609" cy="658.788" rx="11.198" ry="5.005"/>
    <ellipse style="fill: rgb(234, 184, 106);" cx="1119.214" cy="610.9" rx="14.21" ry="6.658"/>
    <ellipse style="fill: rgb(234, 184, 106);" cx="1222.735" cy="630.111" rx="15.688" ry="7.246"/>
    <ellipse style="fill: rgb(234, 184, 106);" cx="1409.197" cy="640.548" rx="15.408" ry="7.805"/>
    <ellipse style="fill: rgb(234, 184, 106);" cx="205.157" cy="568.47" rx="17.131" ry="8.681"/>
  </g>
</svg>
