<?xml version="1.0" encoding="utf-8"?>
<svg viewBox="317.451 370.484 168.053 60.565" xmlns="http://www.w3.org/2000/svg">
  <path fill="currentColor" d="M 575.163 1101.44 C 574.381 1101.448 573.576 1101.366 572.788 1101.159 C 568.113 1099.931 563.845 1094.737 563.632 1089.909 C 563.493 1086.76 567.898 1085.069 568.944 1082.096 C 569.631 1080.144 571.061 1077.2 569.444 1075.909 C 565.824 1073.018 560.545 1081.655 556.194 1080.065 C 553.244 1078.987 553.225 1074.469 551.132 1072.127 C 547.819 1068.423 542.688 1066.627 539.538 1062.783 C 538.175 1061.122 537.343 1059.056 536.538 1057.065 C 535.676 1054.935 535.746 1052.431 534.6 1050.44 C 531.136 1044.417 525.126 1040.239 520.288 1035.252 C 516.009 1030.841 510.514 1027.431 507.257 1022.221 C 506.289 1020.672 505.012 1018.83 505.476 1017.064 C 506.709 1012.375 518.501 1011.77 516.382 1007.408 C 513.474 1001.422 502.861 1013.549 496.726 1010.971 C 492.616 1009.244 491.893 1003.48 489.226 999.909 C 486.139 995.774 483.151 991.497 479.413 987.94 C 474.851 983.598 469.215 980.532 464.225 976.69 C 458.488 972.271 450.669 969.514 447.256 963.128 C 446.271 961.284 447.541 958.803 446.725 956.878 C 446.018 955.207 443.127 954.567 443.163 952.753 C 443.19 951.363 444.821 950.446 446.006 949.722 C 454.043 944.809 464.05 944.263 473.162 941.878 C 485.495 938.649 497.639 933.288 510.381 933.097 L 491.6 928.94 L 457.913 922.909 L 392.913 913.378 L 355.225 907.409 L 300.944 898.69 L 246.85 892.253 L 211.506 886.597 L 206.663 885.472 L 207.319 885.878 L 192.663 888.659 C 185.966 891.122 179.246 893.471 172.475 895.722 C 167.195 897.477 161.897 899.148 156.569 900.753 C 151.874 902.167 147.146 903.536 142.413 904.815 L 129.288 905.815 L 113.882 902.784 L 103.788 897.722 L 99.475 889.909 L 99.475 884.097 L 105.288 880.565 C 109.186 879.566 113.068 878.473 116.913 877.284 C 120.473 876.183 126.684 875.724 130.194 874.472 C 133.789 873.189 135.211 871.236 138.319 869.69 L 136.975 869.378 L 122.694 868.128 L 107.256 866.909 L 79.037 865.722 L 61.193 866.034 L 37.662 869.347 L 19.787 873.659 L 0.631 878.628 L -16.181 888.159 L -16.618 888.159 L -46.649 908.315 L -76.649 925.096 L -114.149 943.315 L -154.149 956.159 L -188.086 962.94 L -201.305 963.659 L -209.149 958.315 L -209.149 946.877 L -208.087 940.44 L -211.305 926.502 L -209.524 911.158 L -209.868 892.596 L -206.649 883.658 L -199.149 879.002 L -208.087 874.377 L -209.524 865.44 L -202.368 849.909 L -198.993 837.221 L -196.649 829.377 L -187.555 823.127 L -192.368 817.408 L -188.087 808.127 L -188.274 795.252 L -200.243 760.971 L -197.899 757.065 L -188.275 750.971 L -205.586 745.096 L -211.493 730.971 L -214.524 718.127 L -217.899 703.471 L -219.712 692.221 L -223.618 679.565 L -228.305 669.94 L -190.93 670.971 L -144.961 676.002 L -99.524 688.127 L -69.711 698.221 L -42.43 707.815 L -7.368 718.315 L -3.556 719.44 L 19.694 726.003 L 17.85 726.065 L 28.694 729.378 L 62.256 732.221 L 102.975 730.815 L 137.256 725.815 L 167.912 714.94 C 164.794 715.887 161.405 716.884 157.631 717.94 L 148.225 713.003 C 148.225 713.003 141.456 711.055 138.006 710.346 C 134.461 709.618 132.868 709.498 129.287 708.971 C 127.166 708.703 123.241 708.136 122.006 709.065 C 120.771 709.994 118.652 708.984 115.819 705.534 C 111.393 700.146 118.148 697.618 115.975 692.44 C 113.952 687.28 114.946 680.573 114.631 672.971 C 114.454 666.828 114.603 661.406 115.131 655.283 C 115.638 649.409 116.862 643.627 118.162 637.877 C 119.473 632.08 121.205 626.363 122.975 620.689 C 125.017 614.141 127.873 607.873 129.662 601.251 C 130.541 598 130.156 594.372 131.631 591.345 C 132.25 590.074 134.221 589.527 134.412 588.126 C 134.72 584.434 129.846 585.671 138.162 579.813 C 138.311 577.839 138.682 576.441 140.85 575.095 C 142.476 573.89 144.285 572.893 146.194 572.22 C 148.594 571.373 151.149 570.802 153.694 570.813 C 157.336 570.83 164.413 572.938 164.413 572.938 L 184.038 581.501 L 203.694 590.438 L 227.256 600.813 L 247.975 611.875 L 266.538 621.5 L 290.132 635.094 L 307.632 646.156 L 322.632 653.313 L 335.476 660.438 L 348.945 663.625 L 377.539 664.125 L 441.414 658.313 L 490.414 652.281 L 533.851 646.219 L 542.319 645.313 L 539.757 644.188 L 532.976 639 L 530.132 633.656 L 528.882 626.5 L 528.507 604.375 L 522.976 604 L 522.976 587.219 L 519.601 574.375 L 515.038 561.219 L 515.288 543.407 L 518.319 537.095 L 522.351 532.188 L 528.788 529.782 L 535.132 532.22 L 556.913 547.595 L 604.038 591.876 L 609.444 597.595 L 615.163 590.907 L 617.694 584.595 L 621.975 580.032 L 629.038 580.032 L 633.6 583.563 L 640.663 591.907 L 646.725 601.001 L 653.038 607.313 L 660.1 617.407 L 666.6 632.126 L 667.194 632.064 L 698.163 629.189 L 770.85 630.095 L 826.194 634.72 L 888.694 642.22 L 936.538 650.095 L 939.476 650.751 L 939.038 631.876 L 939.507 608.314 L 940.476 593.939 L 945.569 584.814 L 952.257 579.471 L 957.632 580.439 L 964.663 584.596 L 980.85 601.252 L 1005.6 631.564 L 1030.35 666.408 L 1035.194 672.439 L 1051.538 676.158 L 1116.913 691.158 L 1138.413 697.72 L 1160.913 701.751 L 1160.507 701.907 L 1160.725 701.939 L 1176.631 703.439 L 1200.85 709.72 L 1231.444 717.564 L 1286.85 731.658 L 1315.35 741.158 L 1342.35 756.658 L 1354.85 767.658 L 1357.913 774.595 L 1356.507 780.408 L 1352.069 784.126 L 1348.288 785.001 L 1340.694 783.158 L 1333.257 781.127 L 1325.038 781.658 L 1318.319 784.033 L 1339.1 793.158 L 1349.6 799.158 L 1355.1 805.158 L 1355.881 811.97 L 1353.069 821.002 L 1346.35 829.127 L 1335.194 839.377 L 1322.475 847.502 L 1307.1 856.158 L 1290.288 865.002 L 1269.1 873.845 L 1249.288 880.908 L 1229.663 887.627 L 1212.163 892.939 L 1201.038 894.345 L 1185.475 900.002 L 1167.256 906.533 L 1148.694 911.502 C 1141.563 913.097 1137.294 912.972 1128.975 914.377 L 1112.631 918.002 L 1088.631 923.908 L 1065.631 929.22 L 1033.975 936.752 L 1007.444 941.439 L 971.319 946.689 L 934.194 952.002 L 899.6 954.939 L 852.1 957.47 L 788.881 958.408 L 749.787 962.658 L 738.912 962.314 C 739.634 962.955 740.127 963.711 740.162 964.658 C 736.586 972.274 726.386 976.276 719.724 982.346 C 706.931 994.003 694.758 1006.348 682.255 1018.315 C 670.667 1029.406 659.406 1040.817 647.443 1051.503 C 640.037 1058.118 632.384 1064.462 624.599 1070.628 C 618.3 1075.617 611.914 1080.552 605.287 1085.097 C 600.656 1088.272 596.022 1091.479 591.006 1094.003 C 585.909 1096.568 580.631 1101.387 575.162 1101.44 Z" transform="matrix(-0.105946, 0, 0, -0.105946, 461.316274, 487.176877)"/>
</svg>
